<svg id="Layer_1" data-name="Layer 1" xmlns="http://www.w3.org/2000/svg" viewBox="0 0 24 24"><defs><style>.cls-1{fill:none;}.cls-2{fill:currentColor;}</style></defs><rect class="cls-1" width="24" height="24"/><ellipse class="cls-2" cx="12" cy="4.38" rx="10" ry="2.38"/><path class="cls-2" d="M12,8.67C6.48,8.67,2,7.6,2,6.29V12c0,1.32,4.48,2.38,10,2.38S22,13.32,22,12V6.29C22,7.6,17.52,8.67,12,8.67ZM16.55,12a1,1,0,1,1,.9-.95A.93.93,0,0,1,16.55,12Z"/><path class="cls-2" d="M12,16.29c-5.52,0-10-1.07-10-2.39v5.72C2,20.93,6.48,22,12,22s10-1.07,10-2.38V13.9C22,15.22,17.52,16.29,12,16.29Zm4.55,3.33a1,1,0,1,1,.9-.95A.93.93,0,0,1,16.55,19.62Z"/></svg>
