<svg id="Layer_1" data-name="Layer 1" xmlns="http://www.w3.org/2000/svg" viewBox="0 0 292.37 73.36"><defs><style>.cls-1{fill:#fff;}</style></defs><path class="cls-1" d="M100.87,30.81l-7-10.49h-4V30.81h-5V1.39H95.78c7,0,10,4.07,10,9.55,0,4.83-2.47,7.74-6.45,8.85v.08l7.55,10.94Zm-11-15h4.77c4,0,6-2.06,6-5,0-3.1-2-5-5.62-5H89.9Z" transform="translate(-0.7 0)"/><path class="cls-1" d="M128.05,20.48a14.1,14.1,0,0,1-.12,1.84H113.21A5.58,5.58,0,0,0,119,26.93a6.24,6.24,0,0,0,5-2.39l3.24,2.77a10.37,10.37,0,0,1-8.44,3.82c-5.88,0-10.33-4.12-10.33-10.43s4.23-10.39,9.85-10.39c6,0,9.8,4.29,9.8,10.17Zm-9.56-6a5.1,5.1,0,0,0-5.19,4.06h10.1A4.81,4.81,0,0,0,118.49,14.48Z" transform="translate(-0.7 0)"/><path class="cls-1" d="M151.45,10.61V28.73c0,6.12-2.81,10.57-10.29,10.57a16.34,16.34,0,0,1-8.22-2.1L134,33.12a13.27,13.27,0,0,0,6.87,2c4,0,6-2.27,6-5V28h-.09a8.2,8.2,0,0,1-6.12,2.47c-5.66,0-9.87-4-9.87-10s4-10.21,9.63-10.21a9,9,0,0,1,6.33,2.48h0V10.61ZM141.33,26.2A5.58,5.58,0,0,0,147,20.75c0-.15,0-.3,0-.45a5.74,5.74,0,0,0-11.47-.42c0,.16,0,.32,0,.48a5.54,5.54,0,0,0,5.21,5.84A5.23,5.23,0,0,0,141.33,26.2Z" transform="translate(-0.7 0)"/><path class="cls-1" d="M175,20.48a11.31,11.31,0,0,1-.13,1.84H160.17a5.57,5.57,0,0,0,5.76,4.61,6.24,6.24,0,0,0,5-2.39l3.24,2.77a10.36,10.36,0,0,1-8.51,3.82c-5.89,0-10.34-4.12-10.34-10.43s4.23-10.39,9.85-10.39c6,0,9.81,4.29,9.81,10.17Zm-9.57-6a5.1,5.1,0,0,0-5.19,4.06h10.11A4.83,4.83,0,0,0,165.44,14.48Z" transform="translate(-0.7 0)"/><path class="cls-1" d="M190.57,10.31c4.42,0,7.42,2.55,7.42,8.61V30.83h-4.63V20.12c0-4.27-1.6-5.6-4.39-5.6-3.13,0-5.24,2.18-5.24,6.14V30.81H179.1V10.61h4.68v2.77h0a8.86,8.86,0,0,1,6.78-3.07Z" transform="translate(-0.7 0)"/><path class="cls-1" d="M209.46,31.13a12.13,12.13,0,0,1-8.17-2.95l2.35-3.47a7.65,7.65,0,0,0,5.82,2.38c1.78,0,2.83-.81,2.83-2s-1.36-1.56-4-2.47C205,21.49,202.12,20,202.12,16c0-3.29,3-5.72,7.12-5.72a10.9,10.9,0,0,1,7.15,2.53l-2.32,3.64A7.56,7.56,0,0,0,209,14.29c-.91,0-2.2.51-2.2,1.74,0,1,1.27,1.7,3.21,2.47,4.29,1.7,7,2.47,7,6.49,0,3.4-2.41,6.12-7.54,6.12Z" transform="translate(-0.7 0)"/><path class="cls-1" d="M227.1,31.13c-3.48,0-5.64-2.2-5.64-6.71V14.56H219v-4h2.47V3.9l4.63-.5v7.21H232v4h-5.94V24c0,2.06.65,2.81,1.94,2.81a7,7,0,0,0,3-.87l1.22,4a9.61,9.61,0,0,1-5.14,1.19Z" transform="translate(-0.7 0)"/><path class="cls-1" d="M246.42,10.31H247v5.16c-.52,0-1.07-.06-1.39-.06-3.52,0-5.52,2.52-5.52,5.8v9.58h-4.63V10.61h4.63v3h.06a7.73,7.73,0,0,1,6.29-3.34Z" transform="translate(-0.7 0)"/><path class="cls-1" d="M249.27,4.53a3.12,3.12,0,1,1,3.12,3.12A3.12,3.12,0,0,1,249.27,4.53Zm.78,6.08h4.63v20.2h-4.63Z" transform="translate(-0.7 0)"/><path class="cls-1" d="M277.4,20.48a14.1,14.1,0,0,1-.12,1.84H262.56a5.59,5.59,0,0,0,5.76,4.61,6.24,6.24,0,0,0,5-2.39l3.23,2.77A10.36,10.36,0,0,1,268,31.13c-5.84,0-10.26-4.13-10.26-10.43s4.22-10.39,9.84-10.39c6,0,9.81,4.29,9.81,10.17Zm-9.56-6a5.11,5.11,0,0,0-5.2,4.06h10.14a4.83,4.83,0,0,0-4.91-4.06Z" transform="translate(-0.7 0)"/><path class="cls-1" d="M281.88,14.56h-2.26v-4h2.26V6.91C281.88,2.41,284,0,288,0a9.72,9.72,0,0,1,5.07,1.39l-1,3.93a8.65,8.65,0,0,0-3.38-1c-1.39,0-2.14.93-2.14,3.13v3.19h5v4h-5V30.81h-4.66Z" transform="translate(-0.7 0)"/><path class="cls-1" d="M84.9,43.61h5V73h-5Z" transform="translate(-0.7 0)"/><path class="cls-1" d="M107,52.53c4.43,0,7.42,2.54,7.42,8.61V73.05h-4.6V62.33c0-4.27-1.59-5.6-4.38-5.6-3.14,0-5.24,2.18-5.24,6.15V73H95.5V52.83h4.63V55.6h.06A8.84,8.84,0,0,1,107,52.53Z" transform="translate(-0.7 0)"/><path class="cls-1" d="M125.86,73.35a12.13,12.13,0,0,1-8.17-2.95L120,66.92a7.64,7.64,0,0,0,5.83,2.39c1.77,0,2.83-.81,2.83-2s-1.36-1.55-4-2.46c-3.31-1.13-6.16-2.65-6.16-6.61,0-3.3,3-5.72,7.11-5.72a10.88,10.88,0,0,1,7.14,2.53l-2.33,3.64a7.59,7.59,0,0,0-5.07-2.16c-.91,0-2.2.5-2.2,1.74,0,1,1.27,1.7,3.21,2.46,4.29,1.7,7,2.47,7,6.49,0,3.4-2.41,6.13-7.55,6.13Z" transform="translate(-0.7 0)"/><path class="cls-1" d="M143.5,73.35c-3.48,0-5.64-2.2-5.64-6.71V56.77h-2.47V52.83h2.47V46.12l4.63-.51v7.22h5.94v3.94h-5.94v9.44c0,2.06.64,2.81,1.94,2.81a6.85,6.85,0,0,0,3-.87l1.21,4a9.55,9.55,0,0,1-5.13,1.19Z" transform="translate(-0.7 0)"/><path class="cls-1" d="M151,46.74a3.13,3.13,0,1,1,3.18,3.08h-.05a3.09,3.09,0,0,1-3.13-3Zm.79,6.09h4.63V73h-4.63Z" transform="translate(-0.7 0)"/><path class="cls-1" d="M167.9,73.35c-3.48,0-5.65-2.2-5.65-6.71V56.77h-2.47V52.83h2.46V46.12l4.63-.51v7.22h6v3.94h-6v9.44c0,2.06.65,2.81,2,2.81a7,7,0,0,0,3-.87l1.21,4A9.64,9.64,0,0,1,168,73.34Z" transform="translate(-0.7 0)"/><path class="cls-1" d="M194.19,52.83V73h-4.63V70.4h-.06a8,8,0,0,1-6.23,2.95c-4.45,0-7.54-2.22-7.54-8.23V52.83h4.63v11c0,4,1.21,5.25,4,5.25s5.2-2.26,5.2-6.63V52.83Z" transform="translate(-0.7 0)"/><path class="cls-1" d="M205.6,73.35c-3.47,0-5.64-2.2-5.64-6.71V56.77H197.5V52.83H200V46.12l4.63-.51v7.22h5.95v3.94h-5.95v9.44c0,2.06.65,2.81,1.94,2.81a7,7,0,0,0,3-.87l1.21,4a9.61,9.61,0,0,1-5.14,1.19Z" transform="translate(-0.7 0)"/><path class="cls-1" d="M232,62.69a14.1,14.1,0,0,1-.12,1.84H217.12a5.58,5.58,0,0,0,5.77,4.61,6.23,6.23,0,0,0,5-2.38l3.23,2.77a10.36,10.36,0,0,1-8.51,3.82c-5.88,0-10.33-4.13-10.33-10.43s4.23-10.39,9.85-10.39c6,0,9.8,4.28,9.8,10.16Zm-9.56-6a5.13,5.13,0,0,0-5.2,4.06h10.11A4.83,4.83,0,0,0,222.4,56.69Z" transform="translate(-0.7 0)"/><path class="cls-1" d="M17.34,13.47H29.77a19.08,19.08,0,0,1,6.47,1.13,13.34,13.34,0,0,1,5.18,3.59A14.54,14.54,0,0,1,44.56,24a14.28,14.28,0,0,1,.26,6.53,14.55,14.55,0,0,1-2.58,5.87,15.29,15.29,0,0,1-3.28,3c-.62.47-1.25.95-1.89,1.49a7.54,7.54,0,0,0-2.51,4,7.73,7.73,0,0,0,.24,4.39,7.54,7.54,0,0,0,7.08,5.06h7.95a2.05,2.05,0,0,0,2.05-2.05V5A35.75,35.75,0,0,0,14,65.07V16.84a3.37,3.37,0,0,1,3.36-3.37Z" transform="translate(-0.7 0)"/><path class="cls-1" d="M58.59,9.25V57.54A3.37,3.37,0,0,1,55.29,61H41.65A14.39,14.39,0,0,1,28.12,49.88a14,14,0,0,1,0-6.38,13.75,13.75,0,0,1,2.73-5.66,14.65,14.65,0,0,1,2.93-2.57c.65-.5,1.36-1.06,2.1-1.69a7.44,7.44,0,0,0,2.41-4.1A7.8,7.8,0,0,0,38,25.05a7.39,7.39,0,0,0-2.54-3.37,7.2,7.2,0,0,0-4.36-1.37H22.85a2.1,2.1,0,0,0-2.1,2.11V69.36A35.75,35.75,0,0,0,58.63,9.21Z" transform="translate(-0.7 0)"/></svg>